<svg xmlns="http://www.w3.org/2000/svg" viewBox="0 0 395.31 400.38"><g id="Green"><path d="M23.68,186.28c-12.6-16.8,15.18-81.68,38.5-105,42.09-45.19,105.69-65.11,122.5-56,7.21,4.52,5.66,30,4,46.2-2.55,25.34-4,46.3-4,46.3s-19.84,4.31-42,25c-20.48,23.26-26.5,44-26.5,44s-24.24.56-48.83,2.41C46.86,190.72,29.1,193.51,23.68,186.28Z" fill="#fff"/></g><g id="Red"><path d="M373.31,187c13.32-16.24-15.68-81.18-39-104.5-42.08-45.19-103.18-66.11-120-57-7.2,4.52-5.65,30-4,46.19,2.55,25.35,4,46.31,4,46.31s22.39,3,43.5,28c20.49,23.26,25,41,25,41s28.19,3.53,51.83,5.19C353.15,193.53,367,194.72,373.31,187Z" fill="#fff"/></g><g id="Blue"><path d="M373.82,214.25c14.13,15.54-17.9,80.94-40,105.42-39.73,47.27-105.74,66.4-123,58.16-7.43-4.15-2.09-38.92-1.37-50.93.78-12.93,2.17-43,2.17-43s23.08-5.13,44.6-26.66c23.41-23.41,26.19-41.48,26.19-41.48s33-4.64,44.11-4.07C336.71,212.26,367.14,206.9,373.82,214.25Z" fill="#fff"/></g><g id="Yellow"><path d="M183.24,377.6c-12.29,9.32-82.18-18.18-105.5-41.5C32.55,294,13.13,228.42,22.24,211.6c4.52-7.2,28-2.65,44.2-1,30,1.2,48.3,3.52,48.3,3.52s7.94,23.19,28.5,45.5c21,22.79,40.5,22.5,40.5,22.5s1.53,29.19,3.19,52.84C188.23,353.44,190.92,371.31,183.24,377.6Z" fill="#fff"/></g><g id="Skeleton"><path d="M194.58,6.61c-103.83,0-190,85.29-190,190.5s71.37,198.5,190,198.5c121.51,0,197-93.29,197-198.5S298.41,6.61,194.58,6.61Zm-11.34,371c-12.29,9.32-82.18-18.18-105.5-41.5C32.55,294,13.13,228.42,22.24,211.6c4.52-7.2,28-2.65,44.2-1,30,1.2,48.3,3.52,48.3,3.52s7.94,23.19,28.5,45.5c21,22.79,40.5,22.5,40.5,22.5s1.53,29.19,3.19,52.84C188.23,353.44,190.92,371.31,183.24,377.6Zm5.47-306.12c-2.55,25.34-4,46.3-4,46.3s-19.84,4.31-42,25c-20.48,23.26-26.5,44-26.5,44s-24.24.56-48.83,2.41c-20.49,1.53-38.25,4.32-43.67-2.91-12.6-16.8,15.18-81.68,38.5-105,42.09-45.19,105.69-65.11,122.5-56C191.89,29.8,190.34,55.3,188.71,71.48Zm25.6-45.94c16.82-9.11,77.92,11.81,120,57,23.32,23.32,52.32,88.26,39,104.5-6.3,7.68-20.16,6.49-38.67,5.19C311,190.57,282.81,187,282.81,187s-4.51-17.74-25-41c-21.11-25-43.5-28-43.5-28s-1.47-21-4-46.31C208.66,55.55,207.11,30.06,214.31,25.54Zm119.5,294.13c-39.73,47.27-105.74,66.4-123,58.16-7.43-4.15-2.09-38.92-1.37-50.93.78-12.93,2.17-43,2.17-43s23.08-5.13,44.6-26.66c23.41-23.41,26.19-41.48,26.19-41.48s33-4.64,44.11-4.07c10.19.53,40.62-4.83,47.3,2.52C388,229.79,355.92,295.19,333.81,319.67Z"/></g><g id="Simon"><text transform="translate(135.65 216.33)" font-size="43.75" fill="#bdb7b7" font-family="Clicker-Book, Clicker">SIMON</text></g><g id="Start_Button" data-name="Start Button"><path d="M216.88,147.1H184.21a12.88,12.88,0,0,0,0,25.75h32.67a12.88,12.88,0,0,0,0-25.75Z" fill="#828282"/><text transform="translate(181.52 164.69)" font-size="13.63" font-family="Clicker-Book, Clicker"><tspan letter-spacing="-0.03em">S</tspan><tspan x="8.01" y="0" letter-spacing="-0.06em">T</tspan><tspan x="14.25" y="0">A</tspan><tspan x="22.62" y="0" letter-spacing="0em">R</tspan><tspan x="31.15" y="0">T</tspan></text></g></svg>