<svg xmlns="http://www.w3.org/2000/svg" viewBox="0 0 612 792"><g id="Green"><path d="M135.1,385.17c-12.6-16.8,15.18-81.68,38.5-105,42.09-45.19,105.69-65.11,122.5-56,7.21,4.52,5.66,30,4,46.19-2.55,25.35-4,46.31-4,46.31s-19.84,4.3-42,25c-20.48,23.26-26.5,44-26.5,44s-24.24.56-48.83,2.4C158.28,389.61,140.52,392.39,135.1,385.17Z" fill="#fff"/></g><g id="Red"><path d="M484.73,385.93c13.32-16.25-15.68-81.18-39-104.5-42.08-45.2-103.18-66.11-120-57-7.2,4.51-5.65,30-4,46.19,2.55,25.35,4,46.31,4,46.31s22.4,3,43.5,28c20.49,23.25,25,41,25,41s28.19,3.52,51.84,5.19C464.57,392.42,478.43,393.61,484.73,385.93Z" fill="#fff"/></g><g id="Blue"><path d="M485.24,413.13c14.13,15.55-17.9,80.95-40,105.43-39.73,47.27-105.74,66.4-123,58.15-7.42-4.14-2.09-38.92-1.37-50.93.78-12.92,2.17-42.95,2.17-42.95s23.08-5.13,44.61-26.66c23.41-23.41,26.18-41.48,26.18-41.48s33.05-4.65,44.11-4.07C448.13,411.15,478.56,405.78,485.24,413.13Z" fill="#fff"/></g><g id="Yellow"><path d="M294.66,576.49c-12.29,9.32-82.18-18.18-105.5-41.5-45.19-42.08-64.61-107.69-55.5-124.5,4.52-7.2,28-2.65,44.2-1,30,1.2,48.3,3.52,48.3,3.52s7.94,23.19,28.5,45.5c21,22.79,40.5,22.5,40.5,22.5s1.53,29.19,3.19,52.83C299.66,552.33,302.34,570.19,294.66,576.49Z" fill="#fff"/></g><g id="Skeleton"><path d="M306,205.5c-103.83,0-190,85.29-190,190.5s71.37,198.5,190,198.5c121.51,0,197-93.29,197-198.5S409.83,205.5,306,205.5Zm-11.34,371c-12.29,9.32-82.18-18.18-105.5-41.5-45.19-42.08-64.61-107.69-55.5-124.5,4.52-7.2,28-2.65,44.2-1,30,1.2,48.3,3.52,48.3,3.52s7.94,23.19,28.5,45.5c21,22.79,40.5,22.5,40.5,22.5s1.53,29.19,3.19,52.83C299.66,552.33,302.34,570.19,294.66,576.49Zm5.47-306.13c-2.55,25.35-4,46.31-4,46.31s-19.84,4.3-42,25c-20.48,23.26-26.5,44-26.5,44s-24.24.56-48.83,2.4c-20.49,1.54-38.25,4.32-43.67-2.9-12.6-16.8,15.18-81.68,38.5-105,42.09-45.19,105.69-65.11,122.5-56C303.31,228.69,301.76,254.19,300.13,270.36Zm25.6-45.93c16.82-9.11,77.92,11.8,120,57,23.32,23.32,52.32,88.25,39,104.5-6.3,7.68-20.16,6.49-38.66,5.19-23.65-1.67-51.84-5.19-51.84-5.19s-4.51-17.75-25-41c-21.1-25-43.5-28-43.5-28s-1.47-21-4-46.31C320.08,254.44,318.53,228.94,325.73,224.43Zm119.5,294.13c-39.73,47.27-105.74,66.4-123,58.15-7.42-4.14-2.09-38.92-1.37-50.93.78-12.92,2.17-42.95,2.17-42.95s23.08-5.13,44.61-26.66c23.41-23.41,26.18-41.48,26.18-41.48s33.05-4.65,44.11-4.07c10.19.53,40.62-4.84,47.3,2.51C499.37,428.68,467.34,494.08,445.23,518.56Z"/></g><g id="Simon"><text transform="translate(247.07 415.21)" font-size="43.75" fill="#bdb7b7" font-family="Clicker-Book, Clicker">SIMON</text></g><g id="Start_Button" data-name="Start Button"><path d="M325,348.61H299a10.25,10.25,0,0,0,0,20.5h26a10.25,10.25,0,0,0,0-20.5Z" fill="#828282"/><text transform="translate(292.94 363.57)" font-size="13.63" font-family="Clicker-Book, Clicker"><tspan letter-spacing="-0.03em">S</tspan><tspan x="8.01" y="0" letter-spacing="-0.06em">T</tspan><tspan x="14.25" y="0">A</tspan><tspan x="22.62" y="0" letter-spacing="0em">R</tspan><tspan x="31.15" y="0">T</tspan></text></g></svg>